<svg viewBox="0 0 512 512" xmlns="http://www.w3.org/2000/svg"><g id="Layer_2" data-name="Layer 2"><g id="Layer_1_copy_6" data-name="Layer 1 copy 6"><g id="_95" data-name="95"><g id="user"><path d="m26.64 512a26.63 26.63 0 0 1 -25.75-33.39l6-23a109.77 109.77 0 0 1 106.12-81.84h181.39a109.77 109.77 0 0 1 106.12 81.84l6 23a26.62 26.62 0 0 1 -25.71 33.39z"/><path d="m380.81 508h-354.17a22.62 22.62 0 0 1 -21.88-28.37l6-23a105.7 105.7 0 0 1 102.25-78.86h181.39a105.7 105.7 0 0 1 102.25 78.86l6 23a22.62 22.62 0 0 1 -21.84 28.37z" fill="#0593fc"/><path d="m66.27 512v-51a17.05 17.05 0 1 1 34.1 0v51z"/><path d="m96.37 461v47h-26.1v-47a13.05 13.05 0 1 1 26.1 0z" fill="#056bb8"/><path d="m307.08 512v-51a17.05 17.05 0 1 1 34.1 0v51z"/><path d="m337.18 461v47h-26.1v-47a13.05 13.05 0 1 1 26.1 0z" fill="#056bb8"/><path d="m203.09 406.43c-18.43 0-36.76-8.68-54.48-25.79l-4-3.86 4.93-2.56c.14-.07 14.57-7.85 14.57-21.79v-38.43h79.23v38.46c0 14.05 14.42 21.71 14.57 21.79l5.06 2.63-4.2 3.86c-18.55 17.04-37.28 25.69-55.68 25.69z"/><path d="m239.34 318v34.46c0 16.64 16.72 25.34 16.72 25.34-35.31 32.48-70.21 33.28-104.67 0 0 0 16.72-8.7 16.72-25.34v-34.46z" fill="#f6a76e"/><path d="m191.9 261.13c-41.34 0-77.44-13.23-104.4-38.25a137.81 137.81 0 0 1 -43-85.36c-4.2-36.75 6.5-72.52 29.42-98.2s55.53-39.32 94.22-39.32c2 0 3.93 0 5.91.11 55.48 2 101.39 15.59 132.77 39.38 30.32 23 46.35 54.5 46.35 91.13 0 71.96-72.35 130.51-161.27 130.51z"/><path d="m349.17 130.62c0 69.87-70.42 126.51-157.27 126.51s-136.46-59.13-143.43-120.07c-7.93-69.42 38.63-136.06 125.44-132.96 114.32 4.07 175.26 56.65 175.26 126.52z" fill="#883f2e"/><path d="m90.28 256.6a36.18 36.18 0 1 1 0-72.36h219.93a36.18 36.18 0 1 1 0 72.36z"/><path d="m342.38 220.42a32.16 32.16 0 0 1 -32.17 32.18h-219.93a32.18 32.18 0 1 1 0-64.36h219.93a32.17 32.17 0 0 1 32.17 32.18z" fill="#ffbc85"/><path d="m200.24 338.7a114.85 114.85 0 0 1 -114.72-114.7v-63.58a22.36 22.36 0 0 1 6.41-15.71c6.42-6.56 15.26-11.44 26.29-14.51 1.28-.47 16.51-6.44 26.67-30.3a7.55 7.55 0 0 1 7-4.6 7.45 7.45 0 0 1 4.64 1.61c13.46 10.56 62.91 45.18 134.08 47.19a24.94 24.94 0 0 1 24.4 25v54.9a114.85 114.85 0 0 1 -114.77 114.7z"/><path d="m311 169.11v54.89a110.72 110.72 0 0 1 -110.76 110.7 110.72 110.72 0 0 1 -110.72-110.7v-63.58a18.52 18.52 0 0 1 5.27-12.92c5-5.13 12.75-10.2 24.62-13.48 0 0 17.82-5.93 29.16-32.55a3.54 3.54 0 0 1 5.44-1.41c13.59 10.66 63.92 46 136.44 48a21.06 21.06 0 0 1 20.55 21.05z" fill="#fed2a5"/></g><circle cx="391.84" cy="391.84" r="120.16"/><circle cx="391.84" cy="391.84" fill="#7c0" r="116.16"/><path d="m407.41 431.26a14.63 14.63 0 0 1 -10.41-4.26l-24.7-24.7a14.73 14.73 0 0 1 0-20.81l24.7-24.7a14.71 14.71 0 0 1 21.21 20.39h33.63a14.72 14.72 0 0 1 0 29.43h-33.63a14.71 14.71 0 0 1 -10.8 24.7z"/><path d="m399.83 424.12-24.7-24.7a10.7 10.7 0 0 1 0-15.15l24.7-24.7a10.7 10.7 0 0 1 15.15 0 10.72 10.72 0 0 1 0 15.15l-6.41 6.41h43.27a10.72 10.72 0 0 1 0 21.43h-43.27l6.43 6.44a10.71 10.71 0 0 1 -15.15 15.15z" fill="#fff5f5"/><path d="m349.57 463.08a14.72 14.72 0 0 1 -14.71-14.71v-113a14.72 14.72 0 0 1 14.71-14.71h52.2a14.71 14.71 0 0 1 0 29.42h-37.5v83.63h37.5a14.71 14.71 0 0 1 0 29.42z"/><path d="m401.77 437.66h-41.5v-91.66h41.5a10.71 10.71 0 1 0 0-21.42h-52.2a10.7 10.7 0 0 0 -10.71 10.71v113.08a10.71 10.71 0 0 0 10.71 10.71h52.2a10.72 10.72 0 0 0 10.71-10.71 10.71 10.71 0 0 0 -10.71-10.71z" fill="#fff5f5"/></g></g></g></svg>